Coordinates
version=1
nRows=16
nColumns=36
inDegrees=yes

Units are S.I. units (second, meters, Newtons, ...)
If the header above contains a line with 'inDegrees', this indicates whether rotational values are in degrees (yes) or radians (no).

endheader
time	pelvis_tilt	pelvis_list	pelvis_rotation	pelvis_tx	pelvis_ty	pelvis_tz	hip_flexion_r	hip_adduction_r	hip_rotation_r	knee_angle_r	knee_angle_r_beta	ankle_angle_r	subtalar_angle_r	mtp_angle_r	hip_flexion_l	hip_adduction_l	hip_rotation_l	knee_angle_l	knee_angle_l_beta	ankle_angle_l	subtalar_angle_l	mtp_angle_l	lumbar_extension	lumbar_bending	lumbar_rotation	arm_flex_r	arm_add_r	arm_rot_r	elbow_flex_r	pro_sup_r	arm_flex_l	arm_add_l	arm_rot_l	elbow_flex_l	pro_sup_l
      3.58333330	     -4.89819184	     -1.64701157	      0.84259206	      0.26711148	      0.82819680	     -0.04554298	     17.15098563	     -6.98556289	    -10.96986911	     27.63753554	      0.48236599	     13.24727430	     -6.20054409	     -7.49999987	     20.65770023	    -14.18329062	    -12.58140268	     32.52464454	      0.56766214	     11.14952085	     -7.13903721	     -7.49999987	    -15.73290028	     -1.50762762	      1.41383653	    102.48929653	      3.13354001	     66.94021415	    117.81839898	     98.91692707	     91.82960049	      7.91109349	     61.15072080	    128.27909991	     85.72739457
      3.60000000	     -5.66933546	     -1.63264344	      1.18257195	      0.26681184	      0.83065067	     -0.04703833	     16.29260358	     -6.77073218	    -11.51005194	     24.72639485	      0.43155700	     11.78563125	     -6.33357574	     -7.49999987	     20.33416908	    -13.68485170	    -12.77627451	     30.12051233	      0.52570211	     10.45581299	     -6.61454729	     -7.49999987	    -14.53159464	     -1.28125100	      1.11492237	    102.90787541	      3.35078823	     66.31119148	    117.23661036	     98.22919024	     91.98805087	      8.63974196	     58.61129189	    129.91173629	     85.22328472
      3.61666670	     -6.39787729	     -1.47818474	      1.35376965	      0.27306125	      0.83559239	     -0.04872047	     15.12551171	     -6.67961585	    -12.00173835	     21.59646154	      0.37692936	     10.67284494	     -5.68176891	     -7.49999987	     19.57354507	    -13.07986451	    -13.44733070	     27.53720098	      0.48061482	      9.37471084	     -6.41176711	     -7.49999987	    -13.07505735	     -1.21630204	      0.81108309	    102.74196454	      3.78763663	     66.02920375	    116.64161854	     97.59588152	     91.54793516	      8.80996544	     56.75486809	    130.09497556	     84.37213777
      3.63333330	     -6.73469308	     -1.33077040	      1.37751426	      0.27687377	      0.83754581	     -0.04940093	     13.55001806	     -6.47299614	    -12.28389484	     18.52351810	      0.32329638	      9.37639497	     -5.14173732	     -7.49999987	     18.45977115	    -12.50970546	    -14.17119416	     24.99766100	      0.43629149	      8.57307499	     -5.74900120	     -7.49999987	    -11.88456488	     -1.23215824	      1.19941618	    102.12686845	      3.80237413	     65.96349697	    117.48265421	     97.85234489	     90.85863258	      9.51532722	     55.65478576	    130.96401712	     84.13882603
      3.65000000	     -7.16525641	     -1.17951908	      1.21678673	      0.28114829	      0.84069649	     -0.05053882	     12.24868734	     -6.22684174	    -12.54187165	     15.44643794	      0.26959120	      8.18370211	     -4.56164006	     -7.49999987	     17.01914291	    -11.91732176	    -15.08247344	     22.14169382	      0.38644546	      7.97140957	     -5.04071202	     -7.49999987	    -10.46710790	     -1.26164102	      1.74552262	    101.31934747	      3.68068144	     65.96552508	    118.47468552	     99.59729711	     89.94367390	      9.93122550	     55.37211150	    131.38184673	     84.42520691
      3.66666670	     -7.54312541	     -1.03155911	      1.01185769	      0.28083907	      0.84265894	     -0.05076936	     11.05240622	     -6.00637827	    -13.02776169	     12.59842347	      0.21988397	      7.14081535	     -3.61760695	     -7.49999987	     15.61358201	    -11.25295275	    -15.86093630	     19.06630657	      0.33276983	      7.36828420	     -4.01277888	     -7.49999987	     -9.49325675	     -1.39705272	      2.20411218	    100.66965154	      3.30151465	     66.05430613	    118.42946270	    100.29191477	     89.68778616	     10.52970987	     55.11063204	    131.39308370	     84.44517027
      3.68333330	     -8.05813439	     -0.90216337	      0.87314885	      0.27938450	      0.84227367	     -0.05137010	     10.29146696	     -5.80395452	    -13.49794209	     10.00478670	      0.17461647	      6.27270718	     -2.64657517	     -7.49999987	     14.64432489	    -10.57780263	    -16.42381442	     16.31957916	      0.28483039	      6.60245135	     -3.45866562	     -7.49999987	     -8.66020019	     -1.46042616	      2.45123063	    100.43845381	      3.51391441	     66.51364332	    118.72059927	    102.18466701	     89.76373528	     10.78277432	     55.48387449	    132.16119268	     86.43833033
      3.70000000	     -8.53778781	     -0.77502767	      0.95205925	      0.28275694	      0.83887103	     -0.05318751	      9.53146812	     -5.71464752	    -14.04765680	      7.68547422	      0.13413683	      5.56925541	     -1.76228252	     -7.49999987	     13.69864024	     -9.85722380	    -16.88716255	     13.74451350	      0.23988701	      5.99288258	     -3.02981166	     -7.49999987	     -7.81564562	     -1.33737554	      2.40978076	    100.64075424	      3.47521202	     66.59991837	    118.45771137	    102.35986516	     89.96113626	     10.78682484	     54.85051343	    132.49586281	     86.01098917
      3.71666670	     -8.97661008	     -0.65888446	      1.09552208	      0.28272026	      0.83729395	     -0.05283232	      9.00509504	     -5.62967097	    -14.20824656	      5.85443166	      0.10217911	      4.85461173	     -1.41592556	     -7.49999987	     12.84621488	     -9.22360709	    -17.36344481	     11.29457533	      0.19712753	      5.80188318	     -1.99754504	     -7.49999987	     -7.13374106	     -1.26604025	      2.41926395	    100.91743093	      3.51698859	     66.50134446	    118.26374731	    102.82903758	     90.34744827	     10.83783890	     54.06154455	    132.96123477	     87.24450905
      3.73333330	     -9.25622154	     -0.58554268	      0.82732263	      0.28879883	      0.83707580	     -0.05241038	      8.39536514	     -5.49573486	    -14.26645943	      4.38554480	      0.07654220	      4.31022069	     -0.97849786	     -7.49999987	     11.57694999	     -8.78399499	    -17.84327907	      8.94930812	      0.15619489	      5.31608483	     -1.44933269	     -7.49999987	     -6.20848997	     -1.32449478	      2.04384896	    101.13571546	      4.44723105	     66.27457064	    119.27600810	    101.84380075	     89.97433568	     10.11789585	     53.87587915	    132.31054056	     85.80095949
      3.75000000	     -9.44982041	     -0.57241330	      0.48009774	      0.28827977	      0.83672368	     -0.05233546	      7.93788946	     -5.31126155	    -14.08306747	      3.22807401	      0.05634052	      3.98108287	     -0.72823889	     -7.49999987	     10.39557881	     -8.45134371	    -18.56762963	      6.86585916	      0.11983185	      5.10338190	     -0.62621064	     -7.49999987	     -5.54185405	     -1.43702955	      2.02228156	    101.19183832	      5.08789623	     65.95101211	    120.35402410	    101.29352337	     89.54353285	      9.85452174	     53.62731735	    131.79379491	     84.62975733
      3.76666670	     -9.71353850	     -0.64663073	      0.51760945	      0.28469762	      0.83683726	     -0.05281666	      7.82549603	     -5.15164898	    -14.07502347	      2.52392625	      0.04405082	      3.54274953	     -0.67805774	     -7.49999987	      9.92374571	     -8.18845228	    -18.72173296	      5.27517486	      0.09206917	      4.85600842	     -0.19955095	     -7.49999987	     -4.96958851	     -1.45816878	      1.97078069	    101.03898729	      5.37956609	     66.04137876	    120.54148312	    101.51889886	     89.15714975	      9.70862735	     53.37996758	    131.23939041	     84.75648451
      3.78333330	     -9.80409213	     -0.68741147	      0.44824077	      0.28714025	      0.83660773	     -0.05296201	      7.60446567	     -5.04184295	    -13.71353596	      1.94368472	      0.03392370	      3.08739396	     -0.95440746	     -7.49999987	      9.27573785	     -7.98083055	    -19.17632241	      3.90329250	      0.06812531	      4.56603352	      0.59068551	     -7.49999987	     -4.55973147	     -1.48891996	      2.06058084	    100.52242975	      5.38482349	     66.22364713	    120.33740895	    104.06804686	     88.66236922	      9.45670175	     53.47387679	    130.23441833	     86.05252067
      3.80000000	     -9.85238782	     -0.73637898	      0.50878162	      0.28668003	      0.83891133	     -0.05305373	      7.36104022	     -4.94759422	    -13.89850211	      1.62089047	      0.02828988	      2.95573552	     -0.49025081	     -7.49999987	      8.84751457	     -7.79236175	    -19.39401083	      2.88906655	      0.05042372	      4.33267221	      1.31561057	     -7.49999987	     -4.25346781	     -1.53210286	      2.25849929	     99.58212780	      5.10300522	     66.98445546	    119.50824226	    104.10738531	     87.89043002	      9.09561903	     54.19490902	    128.98656781	     85.70039780
      3.81666670	     -9.73847849	     -0.75481058	      0.59126644	      0.28881895	      0.84229901	     -0.05464582	      6.95860052	     -4.92996880	    -13.62342360	      1.36110178	      0.02375571	      2.54844657	     -0.73639199	     -7.49999987	      8.34241776	     -7.61239295	    -19.79587763	      2.13379042	      0.03724167	      3.99857536	      2.18152518	     -7.49999987	     -3.99563693	     -1.55230101	      2.46786312	     98.23979382	      4.57691986	     68.09933888	    118.08718007	    103.38904100	     86.58189312	      8.58100704	     54.84621224	    127.91810154	     85.48350233
      3.83333330	     -9.61070931	     -0.79320535	      0.73392637	      0.28842252	      0.84220820	     -0.05429977	      6.64330377	     -4.89956206	    -13.61355570	      1.22127243	      0.02131522	      2.37985673	     -0.58158806	     -7.49999987	      7.99194139	     -7.51166794	    -19.94859745	      1.72025987	      0.03002420	      3.74733544	      2.73321482	     -7.49999987	     -3.78949379	     -1.57441709	      2.73567178	     97.12794802	      4.29955391	     68.62522631	    117.81769477	    102.99633140	     85.53662450	      8.67858470	     55.13531759	    127.95121824	     86.45000480
